<svg xmlns="http://www.w3.org/2000/svg" viewBox="0 0 538.6 350.55"><defs><style>.cls-1{fill:#0c0d0e;}.cls-1,.cls-10,.cls-11,.cls-12,.cls-13,.cls-14,.cls-15,.cls-16,.cls-17,.cls-18,.cls-19,.cls-2,.cls-20,.cls-21,.cls-22,.cls-23,.cls-24,.cls-25,.cls-26,.cls-27,.cls-28,.cls-29,.cls-3,.cls-30,.cls-31,.cls-32,.cls-33,.cls-34,.cls-35,.cls-37,.cls-4,.cls-40,.cls-43,.cls-44,.cls-45,.cls-46,.cls-47,.cls-48,.cls-5,.cls-51,.cls-52,.cls-53,.cls-54,.cls-55,.cls-56,.cls-6,.cls-7,.cls-8,.cls-9{stroke:#231f20;}.cls-1,.cls-10,.cls-11,.cls-12,.cls-13,.cls-14,.cls-15,.cls-16,.cls-17,.cls-18,.cls-19,.cls-2,.cls-20,.cls-21,.cls-22,.cls-23,.cls-24,.cls-25,.cls-26,.cls-27,.cls-28,.cls-29,.cls-3,.cls-30,.cls-31,.cls-32,.cls-33,.cls-34,.cls-35,.cls-37,.cls-38,.cls-39,.cls-4,.cls-40,.cls-43,.cls-44,.cls-45,.cls-46,.cls-47,.cls-48,.cls-5,.cls-50,.cls-51,.cls-52,.cls-53,.cls-54,.cls-55,.cls-56,.cls-57,.cls-58,.cls-6,.cls-7,.cls-8,.cls-9{stroke-miterlimit:10;}.cls-2{fill:#0d0d0d;}.cls-3{fill:#121015;}.cls-4{fill:#0e120f;}.cls-5{fill:#060607;}.cls-6{fill:#060707;}.cls-8{fill:#131413;}.cls-9{fill:#73afd8;}.cls-10{fill:#ed2027;}.cls-11{fill:#fbfaf3;}.cls-12,.cls-39,.cls-57,.cls-58{fill:none;}.cls-13{fill:#eaefeb;}.cls-14{fill:#ed2326;}.cls-15{fill:#141316;}.cls-16{fill:#161414;}.cls-17{fill:#3e2817;}.cls-18{fill:#121212;}.cls-19{fill:#c1bbb8;}.cls-20,.cls-49,.cls-51{fill:#fff;}.cls-20{stroke-width:0.38px;}.cls-21,.cls-36{fill:#050606;}.cls-22{fill:#fffffe;}.cls-23{fill:#222027;}.cls-24{fill:#1a2020;}.cls-25,.cls-26{fill:#fbfdff;}.cls-26{stroke-width:1px;}.cls-27{fill:#1f2025;}.cls-28{fill:#facb1b;}.cls-29{fill:#696f7a;}.cls-30{fill:#5b291f;}.cls-31{fill:#37393f;}.cls-32{fill:#161f36;}.cls-33,.cls-41{fill:#221211;}.cls-34{fill:#070708;}.cls-35{fill:#251310;}.cls-37,.cls-38{fill:#9a3522;}.cls-37,.cls-38,.cls-39,.cls-40,.cls-44,.cls-50{stroke-width:0.25px;}.cls-38,.cls-39,.cls-50{stroke:#000;}.cls-40{fill:#441f1f;}.cls-42,.cls-56{fill:#231f20;}.cls-43,.cls-46{fill:#ddcdcc;}.cls-43{stroke-width:0.5px;}.cls-44,.cls-47{fill:#1d130f;}.cls-45{stroke-width:0.37px;}.cls-46{stroke-width:0.55px;}.cls-47{stroke-width:0.28px;}.cls-48{stroke-width:0.41px;}.cls-50{fill:#cec3be;}.cls-51{stroke-width:0.75px;}.cls-52,.cls-53{fill:#171414;}.cls-53{stroke-width:0.42px;}.cls-54{fill:#1e2122;}.cls-55{fill:#eaeaea;}.cls-57,.cls-58{stroke:#fff;}.cls-58{stroke-width:2px;}</style></defs><title>Resurs 4</title><g id="Lager_2" data-name="Lager 2"><g id="Lager_2-2" data-name="Lager 2"><path class="cls-1" d="M509.35,272.44s-21.46,3.91-24.25,5.86S423,298.92,423,298.92L387.27,295l-1.95-12.26,32.33-40.7h86.4Z"/><path class="cls-2" d="M183.83,211.07s-1.12,47.39-1.34,51.17-5.56,5.79-5.56,5.79l-42.5-2.45,3.78,28,13.8,4.93,29.81,2.81,50.51,2.05,17.13-4.86L255,278.71l17.58-47.84L275.55,175l-16.3-4.81-7.84,41.3Z"/><path class="cls-3" d="M336.56,170.06s-.46-12.77,5.66-15.72,8.6-7,14.72-6.77,15.62,0,15.62,0l20.61-2.05v35.78l-54.93,5.44Z"/><path class="cls-4" d="M251.41,46.78s72.9,11.77,85.14,18.57,14.5,15.17,14.5,15.17l3.17,74.28,47.33-4.08L388.64,34.09,251.41,31.83Z"/><polygon class="cls-5" points="266.16 165.22 363.07 159.11 366.15 232.94 359.79 272.91 337.54 288.56 281.44 288.56 272.52 270.59 272.64 246.51 276.31 196.15 266.16 176.63 266.16 165.22"/><path class="cls-6" d="M357.47,218.16s-7.42,2.05-8.84,1.42S306,192,306,192a8,8,0,0,1-1.13-6.26,40.37,40.37,0,0,0,.32-9.08s35.44,23.48,37.57,23.7,8.33-1.18,9.5-1.5,10.78-3.63,10.78-3.63l-1,18.79Z"/><polyline class="cls-6" points="305.18 175.87 371.3 170.06 363.07 195.2"/><path class="cls-7" d="M82.19,251.42S53,168.66,55.69,157.24s-3.9-.25-3.9-.25l-1,7.45,1.37,14.45L50.77,180v2.12s1.52,40.29,3.42,42.27.06,7.25.06,7.25l4.72,3S79.76,248.48,82.19,251.42Z"/><path class="cls-8" d="M47.66,229.43s.76.76,1.29-1.59a3,3,0,0,0-1.83-3.35S20.18,209.23,8.28,212.33l-.75.2a1.32,1.32,0,0,0-1,1.28c0,4.79.2,24.83.6,25.43s-.08,1.9.69,2.66a3.08,3.08,0,0,0,2.2,1c.84.07,5.4,0,5.4,0L18,241.82S36.94,229.21,47.66,229.43Z"/><path class="cls-6" d="M271,86.64s14.33.51,14.94-7.24.1-11.52-.93-12.73-12-8.2-14-4.84S263.54,59,259.41,70.1,271,86.64,271,86.64Z"/><path class="cls-9" d="M70.93,116.36s17.23,2.9,19.25,2.32,13.75,1.09,17.23-1.12,6.37-5.83,7.09-7.57,7.38-29.38,6.8-31.12,6.23-31.55,5.36-34.16.43-6.8-1.74-8.82a29.61,29.61,0,0,0-5.5-3.77L117.69,34S69.2,113.9,70.93,116.36Z"/><path class="cls-10" d="M525.28,221.1s7.23-2.75,7.53-3.46,1-.82.81-2.34-1.11-9.46-1.11-9.46-7.33,2.34-9,1.63,0,1.42,0,1.42Z"/><polygon class="cls-11" points="522.83 199.13 523.55 207.47 532.5 205.84 531.59 197.6 522.83 199.13"/><path class="cls-12" d="M520.4,185.6l2.43,13.53,8.86-2.44a5,5,0,0,0-1.32-3.46C528.84,191.29,523.45,186.51,520.4,185.6Z"/><path class="cls-13" d="M273.7,183.17h4.64V98s2.42-1.39,2.54-3.14l.13-1.76s-1.27-3.56-2.78-3.5S277,47,277,47h-3.87V90A3.35,3.35,0,0,0,271,93.16a6.19,6.19,0,0,0,1.65,4.5l.18.85-.59,84.66Z"/><path class="cls-14" d="M527,259.63s2.13,7,3.24,7.89a3.22,3.22,0,0,0,1.66.87,21.79,21.79,0,0,0,3.71-1.66c2.37-1.26,2.45-2.72,2.45-2.72a10.32,10.32,0,0,0-.48-3.67c-.63-2.14-1.1-5.22-2.05-6.32s-7.27-4.58-9.8-4.58-1.58,1.89-1.58,1.89l2.93.95a7.36,7.36,0,0,1,3.39,2.45c1.35,1.81-.47,2-.47,2Z"/><path class="cls-15" d="M513,279.19s1.35,26.88,1.67,29,.08,3.16.47,4a14.62,14.62,0,0,0,1.74,2.92c.47.47,7.34,5.21,7.34,5.21h1.58l.56-2s-2.06-34-2.61-35.08a6.8,6.8,0,0,1-.63-2.29l-2.69-3.16H513Z"/><path class="cls-16" d="M416,310.51s-14.31-.9-16.5-2.57-20.37-1.81-20.37-1.81H371l-.52-2.19,1.68-9.41,8.12-1.68,45.25-.64-3.61,18.3Z"/><path class="cls-17" d="M365.86,292.21l9.93,12.12s1.8,2.32,3.48,2.57,2.58.39,3.87-.9,2.45-2.19,2.19-4.51S380.82,290,380.82,290Z"/><circle class="cls-18" cx="48.48" cy="296.34" r="41.42"/><circle class="cls-19" cx="48.37" cy="297.34" r="24.35"/><circle class="cls-20" cx="49.34" cy="295.59" r="15.86"/><circle class="cls-21" cx="462.17" cy="308.63" r="41.42"/><circle class="cls-14" cx="462.07" cy="309.63" r="24.35"/><circle class="cls-22" cx="460.98" cy="307.88" r="15.86"/><path class="cls-14" d="M95.15,274.87a24.47,24.47,0,0,1-8,0c-4.11-.75-24.52-11.95-24.52-11.95s-9.45-6.47-25-4.23-33.64,5-34.59,5c-.7,0-1.32-.07-1.79-.11a.84.84,0,0,1-.77-1L.81,261s8.62-12.8,12.28-15.16,23.24-12.79,27-13.71,7.71-3,10.45-2.35,11.36,1.7,13.32,4.31,13.84,9.4,16.72,14.37S95.15,274.87,95.15,274.87Z"/><polygon class="cls-12" points="248.38 289.38 150.07 285.75 147.1 285.75 141.01 285.75 145.29 291.52 149.08 291.52 151.22 291.52 257.27 295.3 248.38 289.38"/><path class="cls-14" d="M528.8,272.44S527,252.65,526,252.24a1.82,1.82,0,0,1-.95-1.55l-.4-4.28.92-1.38s-1.39-17-1.67-16.82-.7-1.27-.7-1.27v-4.28l.87-1.22s-1.45-15.72-1.79-15.72-1.1-1-1.1-1v-5.37l.4-.93s-1.15-16-1.61-16.35-1.45-1.22-1.45-1.22l-.35-3.23.7-1.39s-.64-12.77-1.33-12.83-31.1,1.85-31.1,1.85l-62.36,4.85-37.57,3.82s.06,1.9-3.41,3.7S377.51,181.1,377,182s-2,4.51-1.79,6.07-.75,2-.75,2l-2.31,21.56s.75,2.95-2.78,6.71-7.34,2-7.34,2l-3.75-.23v1.62l-2.78,40.4s-.11,5.6-6.59,14.27A22.37,22.37,0,0,1,332.26,285l-34.74,1.51s-12.54-2.78-15.2-6.94-4.51-4.28-6.3-11.73,1.27-43.58,1.27-43.58l2.37-37.34-2-3.06-4,.46-2,2.83.52,3.7-1.79,35.31-24-.63s-.75-.29-1.56,1.56,0,1.73,0,1.73l-.64,40.06.41,14.27.23,2.89,9.65,9.14,74.44-1.91,28.38-1.16,29.21-3.06,9-.58,1.1,1.27a12,12,0,0,0,5.66.7c3.82-.24,11.33-.64,14.05-1.62a12,12,0,0,0,4.45-2.95L428,268.26s3-6.82,6.42-8.84,6.3-3.64,10.63-4.51,20.35-3.58,26.59-3.53,10.17-.52,13.75.06a24.51,24.51,0,0,1,10.18,4.45c2.37,1.91,6.47,8.5,7.4,10.46s2.13,4.63,3.17,6.42,4.74,4.57,6.77,4.74,7.22.69,9.19-.46S528.8,272.44,528.8,272.44Z"/><path class="cls-23" d="M288.69,39.66s-3.06,5.65-6.12,5.65-16.48-.71-16.71-1.42-73.68,3.77-80.28,4.24L179,48.6s-11.24,2.59-14.09,4.47-10.86,4-11.33,6.36-11.06,4.94-11.06,4.94h-4.24s4.36-32.25,5.77-32.25,46.25-1.95,46.25-1.95h67.18Z"/><path class="cls-12" d="M386.62,50.61s48.08,5.69,50.86,3.67,9.43,2,9.43,2,10.81,6,9.51,8.89,4.65.54,4.65.54,20.39-5.06,23.95-4.89,18.65-3.51,18.72-4.11"/><path class="cls-24" d="M517,154.48s-11-49.75-10.77-53.42S503.43,55.89,505,55.43s-1.42-2.08-1.42-2.08-20.77-29.53-20-33.91-3.33-2.19-3.33-2.19S448.55,3.53,450,1.43s-10.67,0-10.67,0-41.53,2.29-51.06.1-243.51,9.53-242,5.27S123,21.36,123,21.36s15.35,8.74,15.1,12,2-.12,2-.12,110.67-.28,117.34,1.26,67.43,8.42,73.31,8.28,52.62,4.62,54.16,7.42-.24,2.49-.24,2.49S389,122.18,387.32,123s1.56,39.37,1,42.88S525.83,159.86,517,154.48Z"/><path class="cls-25" d="M386.75,174,513,164.75s5.85-.93,6.94-1.85-.25-2.08-.67-2.24-33.47,3.16-34.47,2.91-96.1,7.29-96.1,7.29-2.38.62-2.64,1.92S386.75,174,386.75,174Z"/><path class="cls-26" d="M386.17,170.21l126.44-9.29s5.87-.93,6.95-1.85-.25-2.08-.66-2.24-33.52,3.16-34.52,2.91S388.16,167,388.16,167s-2.38.62-2.64,1.92S386.17,170.21,386.17,170.21Z"/><path class="cls-27" d="M63.49,170.7s26.18,3.19,31.3,1,1.26.48,2.61-1.45-.29-1.55-.29-1.55l-.87-16.13s-34.1,1.54-35.07.58S63.49,170.7,63.49,170.7Z"/><path class="cls-28" d="M60,156.4,59.34,158s.19,7.73,1.35,9.37,1.93.48,1.93.48l21.25.4a3.48,3.48,0,0,0,2.81,0c1.35-.69.77-3.78.77-3.78l-.29-4.25A2.86,2.86,0,0,0,84.65,158C82.62,157.85,60,156.4,60,156.4Z"/><path class="cls-14" d="M267.15,304s.5-1.65-5.93-2-6.09,2-6.09,2l-3,.82s-47.76,1.15-49.9,0-28.49-1.48-28.49-1.48l-28.49-3.95s-12.84-.5-22.56-3.13-14.65-5.77-18.94-9.88-15.15-21.58-15.15-21.58L72,230.25l-17.12-38V177.06s1.81-27,0-30.3.82-4.77.82-4.77,8.73-22.4,12.84-21.08,12.85-.06,12.85-.06h23.22l7.08-2.91,5.43-8.23,5.11-21.57,3-9.72s.74-3.44,1.54-4,2.25-27.82,2.82-30.49-1.72-7.06-2.82-9.45-5-5.23-5-5.23-3-6.86,5-4.76,8.34,9.34,11.39,8.86-2.28,15.15-.76,19-6.73,35.18-6.73,35.18l-.83,5.27L128,94.89s-.33,47.06-1.65,52.67.66,6.28.66,6.28l3.27.41,1.26,24.22,7.17,91s-.5,10,2.63,18.27,17.62,11.53,20.91,11.53,51.55,2.8,51.55,2.8l12.68-.16,2.14-5.6,46.93,1Z"/><path class="cls-29" d="M383,167.35s-9.39,1.65-10.38,2.86-4.12,1.87-4.61,5.17-4.62,6.76-4.78,12.85a123.42,123.42,0,0,1-1.65,14.51l-2,14.83h3.13s4.62.33,5.44-4.94S372,190.71,372,190.71a11.09,11.09,0,0,1,1.49-7.54,16,16,0,0,1,4.45-5l6.59-4.14Z"/><path class="cls-30" d="M139.79,272.89s11.74.52,15.11,0,7.91-.66,9.1-1a34.84,34.84,0,0,1,5.94-.66,5.06,5.06,0,0,0,4.68-2.64c1.32-2.31,1.52-2.71,1.32-3.63s-1.78-5.34-2.77-6.07-3.83-7.65-3.89-8.11-3.5-.4-3.5-.4l-11.15,1.72a7.2,7.2,0,0,1-5.21,5.47c-4.62,1.39-5.87,2.71-5.87,2.71l-5.61.19Z"/><path class="cls-31" d="M138.49,253.3s10.55,1.88,14.31.82,15.61-2.86,16.27-4.66,0-6.63,0-6.63a20.65,20.65,0,0,1-1.88-2.12c-.41-.66-.25-3-.25-3s-1.55-4.33-2.12-4.33-2.29-19.95-5-20.53,0-2.53,0-2.53,1.39-6.62.73-7.36,2-2.21,2-3,7.68-4.17,7.68-4.17,11.9-1.85,16.56-2.17,14.51-9.28,17.21-7.81,14.72.82,18.15,2,24.63,7.48,24.63,7.48l-5.16-22s-6.71,7.19-9.49,6.46-9.65-14.91-9.65-14.91l-23.79,1.74s-45.79,5.07-47.18,5.81c-1.22.64-10.38.91-13.37,1.84a1.86,1.86,0,0,0-.86.45c-1.06,1.31-7.69,2.61-6.79,4.66s3.27,74.08,3.27,74.08Z"/><path class="cls-31" d="M138.21,173.21s2.82-14.94,3.5-15.19,0-4,0-4a7,7,0,0,1,5.89-4.53c4.78-.68,51.06,9.48,51.06,9.48L198,166"/><path class="cls-32" d="M241.36,174.72s-5.63,5.43-11.64,5-10.86-4.07-12.22-5-5.82-7-9.89-7.18-10.09,0-12.61,0-4.46-10.47-4.46-10.47-25.8,1.16-27.93,0-9.89-5.43-9.89-6V138.64l-5.05,1.17V127.39s7.37-1.74,9.12-1.74a90.9,90.9,0,0,1,15.91,1.16c9.11,1.36,16.09.18,18.81-1.17s18.23-13,20.17-12.6,4.66-8.92,5.82-14.35,7-9.31,7-9.31l3.3-1s1.94,1.55,5.63,0S246.79,71.14,247,69.2s5.82,2.33,5.82,3.49,3.88,11.84,3.3,14S261,91.9,261,91.9l3.3,6.59-7.18,22.31-7.76,17.26s-4.85,7.37-6,14S241.36,174.72,241.36,174.72Z"/><path class="cls-33" d="M151.19,149.14s-5.33-.6-7.61.59-4.74,2.87-5.73,3.46-10.28.79-10.28.79V141.13s18.88-1.29,18.88-.69,8-.6,8-.6Z"/><path class="cls-33" d="M148.62,138.26a3.49,3.49,0,0,0-3.06,0c-1.68.79-5.34,3.17-5.34,3.17l-10.48,3.26H127V134.11s10.87-4.15,12.25-4,7.91-2.28,9.39-1S148.62,138.26,148.62,138.26Z"/><path class="cls-34" d="M247.54,45.81s3.37,10.24,1.1,12.51-2.15,1.49-2.15,1.49l-1.22,2.43-.44,4.15s-2,1.11-2.49.78a4.12,4.12,0,0,1-1.06-3c.28-.78-.77-7.61-.77-7.61l-.72-3.35a2.12,2.12,0,0,1,.89-1.88,2.6,2.6,0,0,0,.94-2.49,3.27,3.27,0,0,0-1.83-1.22c-.44,0-4.31-.44-5.86.11a68.77,68.77,0,0,1-7.36,1.94c-.94.11-5.09.55-5.37.16a18.36,18.36,0,0,0-2.49-1.66l-1.38,1.55a20,20,0,0,0-.61,2.77c0,.61-1.22.44-1.22.44s-.33-6,.22-6S247.54,45.81,247.54,45.81Z"/><path class="cls-35" d="M245,69.88s.83,1.11,1.55.94a4.5,4.5,0,0,0,1.94-2c0-.27.55-3.32,1.33-3.65a4.24,4.24,0,0,0,1.88-3.43c-.17-1.27-1.92-1.49-2.26-1.66a33.87,33.87,0,0,0-4.44.33"/><path class="cls-36" d="M119.26,31.87a14.65,14.65,0,0,1,5.53,4.49c1.48,2.37,1.63,6.33,1.55,9.26,0,.3,0,.61,0,.92,0,.63.09-.51,0,.05l-.06.31L126,48.15l-.78,4.52q-2.59,15.09-5.17,30.18c-1,5.69-1.95,11.38-2.9,17.08l-1.29,7.61c-.12.74-.29,1.49-.37,2.23a2.06,2.06,0,0,0-.07.38s.42-.83.19-.46c-.08.14-.15.3-.22.44a33.84,33.84,0,0,1-1.85,3.13,15.31,15.31,0,0,1-2.62,3.1,8.86,8.86,0,0,1-3.21,1.24q-2.52.7-5.08,1.26c-1.66.37-3.51.74-5.07.92-.71.08-1.43.14-2.14.16-.33,0-.67,0-1,0l-.44,0c-.38,0,.38.06,0,0-2.22-.33-4.45-.56-6.68-.8-2.88-.3-5.77-.59-8.65-.92a61,61,0,0,1-6.79-1c-.32-.07-.65-.19-1-.25s.18.09.24.12l-.12-.06a2.38,2.38,0,0,1,1,1.33c-1-3-5.82-1.75-4.82,1.32.68,2.12,3.19,2.37,5.07,2.68,2.93.47,5.9.8,8.85,1.12s5.85.61,8.77.93l1.67.19.66.08-.23,0,.39.06a17,17,0,0,0,4.1.19,64.31,64.31,0,0,0,11.25-2.12,30,30,0,0,0,4.29-1.31,11,11,0,0,0,4-3.27,24.17,24.17,0,0,0,4-6.4,24.38,24.38,0,0,0,.86-4.66q1.62-9.63,3.26-19.25l5.4-31.54c.48-2.79,1-5.57,1.44-8.36a27.58,27.58,0,0,0-.42-9.75,12.42,12.42,0,0,0-2.12-5.13A19.23,19.23,0,0,0,124.17,29a22.56,22.56,0,0,0-2.38-1.49c-2.84-1.52-5.37,2.79-2.53,4.32Z"/><path class="cls-37" d="M232.26,72.81l-.08.07c-.8.7-9.48,1.44-10.36,1.51a1.5,1.5,0,0,0-.77.32l-.15-.65,11.22-2A3,3,0,0,1,232.26,72.81Z"/><path class="cls-38" d="M232.26,72.81c.73-.63.87-.77.87-.77l.24-.22"/><path class="cls-39" d="M220.22,75.62a3.71,3.71,0,0,1,.83-.91"/><path class="cls-33" d="M227.81,88.42l-1-2.93a2.49,2.49,0,0,1-2.12,0,8.58,8.58,0,0,1-2.2-3.26c-.16-.57-1.62-3.5-1.62-3.5s-1.63-2.19-2.93-4.15-2.93-5.37-2.85-6.26.73-4.32.73-4.32a4.3,4.3,0,0,0,.16-3.33c-.24-.9-.62-.75-.24-1.94s.67-6.87.82-7.61a26.39,26.39,0,0,1,1.49-3.36l24.55,1.49,3.06,10.52,1.19,19.17-9.1,11Z"/><path class="cls-40" d="M233.47,72.1l-.38-.28a13.5,13.5,0,0,0-2.86-.43c-1.25,0-5.51,1.29-6.63,1.42s-1.75-.64-2.26,0-1.45.89-1.5,2a2.94,2.94,0,0,0,.2,1.56s.94,1.43,1.57,1.62a21.21,21.21,0,0,0,4.1-.34c.56-.08,5.46-1.11,6.26-1.93a22.65,22.65,0,0,0,2.07-3Zm-1.35,1.34c-.33.35-3,.9-3.66,1.23s-3.93.39-4.71.5a14.71,14.71,0,0,1-2.63-.17l-.07-.29a1.5,1.5,0,0,1,.77-.32c.88-.07,9.56-.81,10.36-1.51l.08-.07A.85.85,0,0,1,232.12,73.44Z"/><path class="cls-41" d="M220.06,59.37A9.26,9.26,0,0,1,222.12,61c.52.62.16,2.33-.12,2.86s-2.5,3.35-2.64,3.81-1,1.8-.81,2.4.45,1.34.77,1.34"/><path class="cls-42" d="M220.06,59.37a13.53,13.53,0,0,1,1.55.93,3.51,3.51,0,0,1,.69.65,1.85,1.85,0,0,1,.27.94,4.73,4.73,0,0,1-.28,1.86,10,10,0,0,1-1,1.56l-1.06,1.44a8.72,8.72,0,0,0-.51.73l-.11.17a1.35,1.35,0,0,0-.08.19c-.07.15-.14.28-.2.42a5.53,5.53,0,0,0-.66,1.61,2.64,2.64,0,0,0,.18.83c.11.26.2.6.49.69-.32,0-.48-.39-.62-.64a2.66,2.66,0,0,1-.29-.89,5.46,5.46,0,0,1,.55-1.77l.16-.4a1.49,1.49,0,0,1,.09-.23l.11-.21c.16-.27.33-.52.5-.77L220.87,65a13.74,13.74,0,0,0,1-1.43,5.27,5.27,0,0,0,.33-1.67,1.63,1.63,0,0,0-.15-.78,3.86,3.86,0,0,0-.58-.64C221,60.08,220.53,59.75,220.06,59.37Z"/><path class="cls-41" d="M220.7,70.51s.88.77,1.48.56,1.37-.25,1.83-.88,1.59-.56,1.55-.32-.53.53-.53.53"/><path class="cls-42" d="M220.7,70.51a2.2,2.2,0,0,0,1.36.39,10.62,10.62,0,0,0,1.39-.53,1,1,0,0,0,.25-.2.41.41,0,0,0,.11-.12.69.69,0,0,1,.17-.17,1.4,1.4,0,0,1,.82-.35,2.16,2.16,0,0,1,.44,0,.9.9,0,0,1,.22.06c.07,0,.19.07.22.25s-.18.28-.29.37a1.22,1.22,0,0,1-.36.18l.28-.28c.07-.08.15-.23.13-.26s-.12,0-.23,0a1.33,1.33,0,0,0-.34,0,1.31,1.31,0,0,0-.57.31l-.24.29a1.93,1.93,0,0,1-.35.29,5.43,5.43,0,0,1-1.57.48A1.77,1.77,0,0,1,220.7,70.51Z"/><path class="cls-41" d="M227.89,67s1.9,2.22.81,3.06"/><path class="cls-42" d="M227.89,67a3.08,3.08,0,0,1,1.16,1.36,1.93,1.93,0,0,1,.17.93.84.84,0,0,1-.52.77,1,1,0,0,0,.14-.76,3.8,3.8,0,0,0-.25-.74C228.37,68.08,228.1,67.59,227.89,67Z"/><ellipse class="cls-43" cx="219.95" cy="61.74" rx="2.17" ry="0.84"/><path class="cls-44" d="M221.05,61.74a1,1,0,0,1-.87.86.89.89,0,0,1,0-1.73A1,1,0,0,1,221.05,61.74Z"/><circle class="cls-45" cx="220.27" cy="61.74" r="0.35"/><ellipse class="cls-46" cx="230.86" cy="60.98" rx="2.39" ry="0.93"/><path class="cls-47" d="M232.06,61a1,1,0,0,1-1,.94,1,1,0,0,1,0-1.89A1,1,0,0,1,232.06,61Z"/><circle class="cls-48" cx="231.21" cy="60.98" r="0.38"/><circle class="cls-49" cx="230.96" cy="60.6" r="0.13"/><circle class="cls-49" cx="219.92" cy="61.46" r="0.09"/><path class="cls-50" d="M232.26,72.81a.85.85,0,0,1-.14.63c-.33.35-3,.9-3.66,1.23s-3.93.39-4.71.5a14.71,14.71,0,0,1-2.63-.17l-.07-.29a1.5,1.5,0,0,1,.77-.32c.88-.07,9.56-.81,10.36-1.51Z"/><path class="cls-51" d="M128.5,96s-3.63,55.41-2.34,57.63,11.22-1.29,11.22-1.29l.47-6.54s3-52.6,2.33-52.72-4.32,0-4.32,0Z"/><path class="cls-49" d="M385.77,172.17c-10.1.32-14.5,13.16-14.76,21.55a72.57,72.57,0,0,1-2.4,17.86c-1.64,5.6-4.94,4.93-10.08,5.76-2.37.38-1.36,4,1,3.61,2.69-.43,6.87-.39,9.22-2,3.75-2.51,4.29-9.55,4.89-13.58.67-4.51.7-9,1.08-13.53.47-5.61,4.32-15.73,11-16,2.41-.07,2.42-3.82,0-3.75Z"/><circle class="cls-52" cx="461.16" cy="309.8" r="4.88"/><circle class="cls-53" cx="470.91" cy="307.46" r="2.07"/><circle class="cls-53" cx="459.09" cy="300.99" r="2.07"/><circle class="cls-53" cx="452.25" cy="311.19" r="2.07"/><circle class="cls-53" cx="463.22" cy="317.79" r="2.07"/><circle class="cls-52" cx="48.89" cy="296.04" r="4.88"/><circle class="cls-53" cx="57.35" cy="301.45" r="2.07"/><circle class="cls-53" cx="53.81" cy="288.45" r="2.07"/><circle class="cls-53" cx="41.71" cy="290.59" r="2.07"/><circle class="cls-53" cx="44.57" cy="303.07" r="2.07"/><path class="cls-54" d="M169.74,195.2s-1.55,10.56,1.3,13.4.51,4.65,4.39,5.69a75.54,75.54,0,0,0,10.08,1.55c1.8.25,67.7.77,71.83,0s6.46-7.24,6.72-8.79,2.1-41.83,2.1-41.83L270,147.57l4.14-15.45V92.06s-6.72-6.44-9.05-5.42-6.38,6.67-6.38,6.67v7l5.61,3.36S246.23,139.87,245.45,144s-2.84,17.88-2.84,22.12.28,20.78,1.56,22.84a2.91,2.91,0,0,1,0,3.5s-38-8.74-49.1-5.73S169.74,195.2,169.74,195.2Z"/><path class="cls-55" d="M125.52,66.06l-3.86,1s-2.9-1.83.58-2.79l3.47-1,3.18-.58h1.55v1.16Z"/><path class="cls-56" d="M128.41,61.81s-.67-3.57.77-3.76-.46-4.73-.46-4.73l-3.24-8.2V42.91a7.73,7.73,0,0,1,3.7,0,4.69,4.69,0,0,1,3.67,3.37c.19,1.26,6.08,15.63,6.08,21.23s1.73,14,1.54,15.82-4.82,3.28-4.82,3.28l-3.09-1.26-.77-17.84-2.9-.49-.48-1.64Z"/><path d="M56,146.65a103.26,103.26,0,0,0,10.52,1.51c5.26.58,10.53,1.05,15.8,1.47,11,.86,22,1.6,33,1.66,2.07,0,4.15,0,6.21-.13a16.29,16.29,0,0,0,4.06-.56c2.29-.74,1.31-4.36-1-3.61a8.82,8.82,0,0,1-1.26.27s.41,0,0,0l-.41.05-1,.09c-1.74.12-3.49.14-5.23.15-4.94,0-9.87-.18-14.8-.41-11.14-.54-22.29-1.34-33.38-2.51A99.52,99.52,0,0,1,57,143c-2.35-.52-3.36,3.09-1,3.61Z"/><path class="cls-49" d="M62.55,144.84c3.6-.08,7.19,0,10.77.17s7.15.39,10.72.64,7.14.58,10.7.94,7.1.8,10.69,1a32.47,32.47,0,0,1-5.38.53c-1.8.06-3.6.08-5.4,0-3.6,0-7.18-.25-10.76-.5s-7.14-.62-10.7-1.08S66.08,145.59,62.55,144.84Z"/><path class="cls-49" d="M408.78,262.44a2.77,2.77,0,0,1-.49.15c-.15,0-.41.05-.49-.18a1.7,1.7,0,0,1,.4-1,16.64,16.64,0,0,1,1.31-1.58c.93-1,1.91-1.93,2.89-2.86l3-2.74,1.4-1.43,1.33-1.48a58.76,58.76,0,0,1,5.55-6.06,21.18,21.18,0,0,1,7.49-3.91c1.32-.44,2.66-.76,4-1.09l4-.8c2.62-.5,5.22-1.12,7.82-1.77,5.21-1.26,10.4-2.77,15.82-3.78a48.54,48.54,0,0,1,8.3-.81c.7,0,1.4,0,2.11.06l2.11.19,2.09.35c.69.12,1.3.25,2,.38a36.77,36.77,0,0,0,7.79.67,20.35,20.35,0,0,1,4.28.32,23,23,0,0,1,4.07,1.31A52.51,52.51,0,0,1,515.12,251a21.56,21.56,0,0,1,4.21,6.93,13.88,13.88,0,0,0-2.14-3.39,34.61,34.61,0,0,0-2.69-3,52.85,52.85,0,0,0-6-5.25,55.93,55.93,0,0,0-13.84-7.69,19.31,19.31,0,0,0-3.67-1,18.71,18.71,0,0,0-3.78-.17,40.85,40.85,0,0,1-8.32-.5l-2-.35-1.9-.3L473,236.1c-.64,0-1.29,0-1.93,0a46.72,46.72,0,0,0-7.78.83c-5.21.91-10.4,2.4-15.7,3.59-2.65.58-5.31,1.14-8,1.58a79.12,79.12,0,0,0-7.8,1.56,19.77,19.77,0,0,0-6.93,3.19,59.19,59.19,0,0,0-5.71,5.54,55.33,55.33,0,0,1-6.22,5.28c-1.06.83-2.11,1.67-3.12,2.55a17.32,17.32,0,0,0-1.44,1.4,1.59,1.59,0,0,0-.47.8c0,.14.22.17.37.15A2.19,2.19,0,0,0,408.78,262.44Z"/><path class="cls-7" d="M61,123.71s-4.24,6-4.51,9.24"/><line class="cls-7" x1="56.92" y1="123.71" x2="55.08" y2="128.8"/><path class="cls-7" d="M487,17.76s3.47,12.43,10.08,17.34"/><path class="cls-7" d="M492.08,19.07s-.53,2.18,2.62,5"/></g><g id="Lager_3" data-name="Lager 3"><line class="cls-57" x1="102.7" y1="268.37" x2="121.82" y2="268.37"/><path class="cls-57" d="M98.63,249.53s23-.37,23.19,0"/><path class="cls-57" d="M92.3,234.65s23.81,2.24,27.16,0"/><path class="cls-57" d="M80,216.8s34.6,2.23,36.84,0"/><path class="cls-57" d="M75.56,200.8s34.34,3.35,36.7,0"/><path class="cls-57" d="M73,182.2s22.32,6.32,31.25,2.6"/><line class="cls-57" x1="249.95" y1="248.91" x2="272.16" y2="248.91"/><line class="cls-57" x1="249.95" y1="272.85" x2="274.84" y2="272.85"/><line class="cls-57" x1="364.25" y1="268.63" x2="396.8" y2="265.38"/><line class="cls-57" x1="366.74" y1="245.28" x2="417.86" y2="239.34"/><path class="cls-57" d="M370.76,221.54,512.82,207s6.32.38,6.51-1.92"/><path class="cls-57" d="M373.25,197.41,510,184a16.18,16.18,0,0,0,9.38-2.3"/><path class="cls-57" d="M497.12,232.07l19.34-1.92s5.55.19,5.93-2.3"/><line class="cls-57" x1="521.05" y1="252.74" x2="523.16" y2="251.79"/><path class="cls-57" d="M528.71,259.44s4.79-.76,5.17-2.87a3.7,3.7,0,0,0-1.53-3.83"/><path class="cls-57" d="M529.48,273.61s-8.43,6.89-13,5-8.24-.19-10.92-5S499,261.55,499,261.55a9.62,9.62,0,0,0-4.59-5.46c-3.45-1.62-8.23-3.35-8.23-3.35l-21.06-1s-9.58.57-11.11,1-11.68,3.45-13,4.41-6.89,2.29-6.89,2.29l-2.87,3.64-5.17,11.11-2.49,6.12-2.68,5-4,3.45-7.08,1.15h-9.19"/><path class="cls-49" d="M5.44,258.21a25.84,25.84,0,0,1,3.29-4.87,27.46,27.46,0,0,1,4.13-4.08c1.56-1.17,3.32-2.1,4.84-3.28A38.53,38.53,0,0,0,22,242.07a32.49,32.49,0,0,1,4.4-3.88,30.85,30.85,0,0,1,5-3.17,20.81,20.81,0,0,1,5.74-1.89,10.86,10.86,0,0,1,6,.49l0,.29a19.36,19.36,0,0,0-5.34,1.5,47.87,47.87,0,0,0-4.91,2.46c-1.62.89-3.28,1.73-4.91,2.68s-3.27,1.9-5,2.82a23.07,23.07,0,0,0-4.66,3.35c-1.4,1.31-2.5,2.94-3.77,4.38A38.5,38.5,0,0,1,10.38,255a39.14,39.14,0,0,1-4.71,3.42Z"/><path class="cls-49" d="M46.9,239.07a8.9,8.9,0,0,1,1.16,3.38,12.86,12.86,0,0,1,0,3.45,11.87,11.87,0,0,1-1,3.37,7.43,7.43,0,0,1-2.24,2.85,26.65,26.65,0,0,1,0-3.43c0-1.07.12-2.12.26-3.17a30.34,30.34,0,0,1,.59-3.17A15.55,15.55,0,0,1,46.9,239.07Z"/><path class="cls-49" d="M34.52,220.5a32.31,32.31,0,0,0-6.16-3.32,44.77,44.77,0,0,0-6.63-1.89L20,215c-.57-.1-1.15-.16-1.72-.26-1.15-.19-2.31-.31-3.47-.44-2.33-.24-4.68-.43-7.07-.6a28.18,28.18,0,0,1,7.14-1,33.79,33.79,0,0,1,7.22.64A26.81,26.81,0,0,1,29,215.77,16.77,16.77,0,0,1,34.52,220.5Z"/><path class="cls-49" d="M12.85,224.48a10.88,10.88,0,0,1,2.83-1,15.75,15.75,0,0,1,2.9-.36,13.85,13.85,0,0,1,2.94.2,6,6,0,0,1,2.83,1.16c-1,.11-1.93.3-2.88.41s-1.88.2-2.83.23a22.82,22.82,0,0,1-2.86-.08A13.5,13.5,0,0,1,12.85,224.48Z"/><path class="cls-58" d="M6.88,240.84S4.23,223.8,5.56,217"/><path class="cls-49" d="M52.2,175.18c1.65,4.79,3.16,9.61,4.65,14.44l4.39,14.48,2.19,7.23,1.1,3.62q.59,1.8,1.14,3.6c.35,1.21.79,2.39,1.17,3.59s.8,2.39,1.23,3.57l.62,1.78.71,1.74A34.31,34.31,0,0,0,71,232.66a26.81,26.81,0,0,1-2.09-3.18L68,227.8l-.82-1.72c-1.1-2.29-2-4.65-3-7-1.85-4.73-3.38-9.56-4.87-14.39s-2.78-9.73-4-14.65S53.05,180.18,52.2,175.18Z"/><path class="cls-58" d="M69.67,159.26s10.17.89,13.7,0"/><path class="cls-49" d="M115.38,43.88c-1.31,3-2.74,6-4.26,8.89s-3.08,5.79-4.8,8.58-3.61,5.49-5.29,8.31-3.18,5.72-4.65,8.66-2.93,5.88-4.5,8.75-3.1,5.78-4.74,8.62c-3.3,5.66-6.75,11.24-10.53,16.63l-.18-.1c2.69-6,5.7-11.84,8.86-17.58,1.59-2.87,3.28-5.68,4.95-8.5s3.41-5.6,5.19-8.36,3.49-5.55,5-8.44,2.91-5.89,4.4-8.81,3.19-5.73,4.9-8.53,3.51-5.54,5.43-8.22Z"/><path class="cls-49" d="M90.41,96.51a56.07,56.07,0,0,1,2.65-6,61.6,61.6,0,0,1,3.18-5.66c1.18-1.81,2.54-3.53,3.67-5.37a55.22,55.22,0,0,0,3-5.75c.91-2,1.85-3.92,2.89-5.82s2-3.83,3.12-5.7a105.72,105.72,0,0,1,7.3-10.78l.18.1A101.34,101.34,0,0,1,110.8,63.3c-1,1.9-2.2,3.73-3.34,5.57s-2.32,3.66-3.57,5.44a57,57,0,0,0-3.42,5.52c-1,1.91-1.82,3.94-2.79,5.88a62.55,62.55,0,0,1-3.28,5.6,56,56,0,0,1-3.82,5.3Z"/><path class="cls-49" d="M156.16,10.12q28.14-.9,56.27-.7c9.38.13,18.76.38,28.14.41s18.76-.17,28.14-.43,18.75-.52,28.13-.72L325,8c9.38-.2,18.75-.34,28.12-.61,4.68-.15,9.37-.25,14.05-.49,2.34-.12,4.68-.23,7-.42,1.16-.09,2.33-.19,3.49-.34a16,16,0,0,0,3.4-.69l.09.18a14.86,14.86,0,0,1-3.42.94c-1.16.22-2.33.39-3.49.55q-3.49.48-7,.79c-4.68.41-9.36.78-14.05,1q-14.07.79-28.14,1.18c-9.38.25-18.76.33-28.14.4s-18.77,0-28.15-.06-18.76-.13-28.14,0-18.76.45-28.14.61-18.76.08-28.15,0-18.76-.33-28.14-.74Z"/><path class="cls-49" d="M454.71,7.85a15.34,15.34,0,0,1,2.79,1.24A14.87,14.87,0,0,1,460,10.76a26.82,26.82,0,0,0,2.2,2.07,10,10,0,0,0,2.66,1.37c.95.34,1.88.68,2.77,1.09s1.81.77,2.69,1.16c1.76.85,3.42,1.73,5.32,2.52v.2a10.18,10.18,0,0,1-1.58.2c-.52,0-1-.07-1.58-.13a14.48,14.48,0,0,1-3-.83,9.88,9.88,0,0,1-1.39-.67c-.44-.25-.9-.49-1.32-.77s-.86-.55-1.27-.85-.79-.65-1.19-1a14.87,14.87,0,0,0-2.45-1.76c-.88-.49-1.89-.78-2.8-1.24a11.82,11.82,0,0,1-2.43-1.79,11.1,11.1,0,0,1-2-2.35Z"/><path class="cls-49" d="M473.27,58.55a12.63,12.63,0,0,1,2.67-1,11.94,11.94,0,0,1,2.72-.42,26.18,26.18,0,0,0,2.8.07,9,9,0,0,0,2.67-.72,26.44,26.44,0,0,1,2.59-1c.86-.29,1.72-.59,2.58-.83,1.76-.45,3.47-.8,5.34-1.24l.11.16a10.45,10.45,0,0,1-4.82,3.12,16.45,16.45,0,0,1-2.76.63c-.47.07-.93.14-1.4.18s-.95,0-1.42,0a12.21,12.21,0,0,0-2.78.29c-.9.22-1.77.68-2.67.94a10.76,10.76,0,0,1-2.77.32,10.07,10.07,0,0,1-2.85-.38Z"/><path class="cls-49" d="M388.06,53.43c3.08-.31,6.15-.41,9.21-.48s6.14-.07,9.2.09,6.13.5,9.19.58a91.11,91.11,0,0,0,9.2-.29c1.52-.12,3.05-.27,4.55-.43.76-.09,1.45-.18,2.23-.3s1.54-.23,2.32-.31a31.35,31.35,0,0,1,4.75-.15,36.34,36.34,0,0,1,4.66.63,9.55,9.55,0,0,1,2.44.71,17.84,17.84,0,0,1,2.12,1.14,40.11,40.11,0,0,1,3.85,2.69,41.11,41.11,0,0,1,3.5,3.09,18.54,18.54,0,0,1,1.57,1.74A5.26,5.26,0,0,1,458,64.22l-.2,0a5.69,5.69,0,0,0-1.43-1.68c-.57-.49-1.17-.95-1.76-1.42-1.2-.92-2.48-1.75-3.75-2.57S448.29,57,447,56.3c-.67-.33-1.32-.66-2-.94a7.25,7.25,0,0,0-2-.49c-1.53-.27-3-.52-4.45-.65a28.58,28.58,0,0,0-4.44,0c-.75,0-1.5.11-2.25.19s-1.58.14-2.35.14c-1.56,0-3.1,0-4.64-.07-3.08-.12-6.15-.23-9.22-.16-1.53,0-3.07.11-4.6.21l-4.61.22c-3.07.08-6.14,0-9.21-.2s-6.13-.41-9.18-.87Z"/><path class="cls-49" d="M509,151.82a22.6,22.6,0,0,1-2-3.95,24.7,24.7,0,0,1-1.34-4.17c-.3-1.44-.39-2.93-.72-4.36a30.31,30.31,0,0,0-1.34-4.18c-.25-.68-.53-1.37-.77-2.07s-.42-1.4-.62-2.11a37.25,37.25,0,0,1-1-4.31,21,21,0,0,1,.3-8.89l.2,0c.43,2.92,1,5.68,1.61,8.51.26,1.41.47,2.84.7,4.27s.44,2.86.61,4.32a22,22,0,0,0,.89,4.27c.44,1.39,1.16,2.7,1.69,4.05a15.18,15.18,0,0,1,.68,2.07c.2.7.39,1.4.55,2.11a29.68,29.68,0,0,1,.72,4.35Z"/></g></g></svg>